<svg xmlns="http://www.w3.org/2000/svg" width="1024" height="1024" viewBox="0 0 1024 1024"><defs><filter id="sh" x="-10%" y="-10%" width="120%" height="120%"><feDropShadow dx="0" dy="7" stdDeviation="7" flood-color="#7a1210" flood-opacity="0.35"/></filter></defs><rect width="1024" height="1024" fill="#E12C27"/><g opacity="0.9"><rect x="0" y="160.7" width="1024" height="20" fill="#ffffff"/><rect x="0" y="331.3" width="1024" height="20" fill="#ffffff"/><rect x="0" y="502.0" width="1024" height="20" fill="#ffffff"/><rect x="0" y="672.7" width="1024" height="20" fill="#ffffff"/><rect x="0" y="843.3" width="1024" height="20" fill="#ffffff"/><rect x="246.0" y="0.0" width="20" height="170.7" fill="#ffffff"/><rect x="502.0" y="0.0" width="20" height="170.7" fill="#ffffff"/><rect x="758.0" y="0.0" width="20" height="170.7" fill="#ffffff"/><rect x="118.0" y="170.7" width="20" height="170.7" fill="#ffffff"/><rect x="374.0" y="170.7" width="20" height="170.7" fill="#ffffff"/><rect x="630.0" y="170.7" width="20" height="170.7" fill="#ffffff"/><rect x="886.0" y="170.7" width="20" height="170.7" fill="#ffffff"/><rect x="246.0" y="341.3" width="20" height="170.7" fill="#ffffff"/><rect x="502.0" y="341.3" width="20" height="170.7" fill="#ffffff"/><rect x="758.0" y="341.3" width="20" height="170.7" fill="#ffffff"/><rect x="118.0" y="512.0" width="20" height="170.7" fill="#ffffff"/><rect x="374.0" y="512.0" width="20" height="170.7" fill="#ffffff"/><rect x="630.0" y="512.0" width="20" height="170.7" fill="#ffffff"/><rect x="886.0" y="512.0" width="20" height="170.7" fill="#ffffff"/><rect x="246.0" y="682.7" width="20" height="170.7" fill="#ffffff"/><rect x="502.0" y="682.7" width="20" height="170.7" fill="#ffffff"/><rect x="758.0" y="682.7" width="20" height="170.7" fill="#ffffff"/><rect x="118.0" y="853.3" width="20" height="170.7" fill="#ffffff"/><rect x="374.0" y="853.3" width="20" height="170.7" fill="#ffffff"/><rect x="630.0" y="853.3" width="20" height="170.7" fill="#ffffff"/><rect x="886.0" y="853.3" width="20" height="170.7" fill="#ffffff"/></g><g filter="url(#sh)"><text x="302" y="376" font-family="Arial Black, Arial, Helvetica, sans-serif" font-weight="900" font-size="288" fill="#fff" stroke="#fff" stroke-width="34" stroke-linejoin="round" paint-order="stroke" text-anchor="middle" dominant-baseline="central">B</text><text x="722" y="376" font-family="Arial Black, Arial, Helvetica, sans-serif" font-weight="900" font-size="288" fill="#fff" stroke="#fff" stroke-width="34" stroke-linejoin="round" paint-order="stroke" text-anchor="middle" dominant-baseline="central">F</text><text x="302" y="664" font-family="Arial Black, Arial, Helvetica, sans-serif" font-weight="900" font-size="288" fill="#fff" stroke="#fff" stroke-width="34" stroke-linejoin="round" paint-order="stroke" text-anchor="middle" dominant-baseline="central">T</text><text x="722" y="664" font-family="Arial Black, Arial, Helvetica, sans-serif" font-weight="900" font-size="288" fill="#fff" stroke="#fff" stroke-width="34" stroke-linejoin="round" paint-order="stroke" text-anchor="middle" dominant-baseline="central">M</text></g></svg>